<svg width="18" height="22" viewBox="0 0 18 22" fill="none" xmlns="http://www.w3.org/2000/svg">
<path d="M1 3.55101C1 2.87444 1.28095 2.22558 1.78105 1.74717C2.28115 1.26877 2.95942 1 3.66667 1L14.3333 1C15.0406 1 15.7189 1.26877 16.219 1.74717C16.719 2.22558 17 2.87444 17 3.55101V20.7703C16.9999 20.8857 16.9672 20.9989 16.9052 21.0978C16.8432 21.1968 16.7543 21.2778 16.648 21.3323C16.5417 21.3867 16.4219 21.4126 16.3015 21.407C16.181 21.4015 16.0644 21.3649 15.964 21.301L9 17.7104L2.036 21.301C1.93561 21.3649 1.81897 21.4015 1.69852 21.407C1.57807 21.4126 1.45831 21.3867 1.352 21.3323C1.24569 21.2778 1.15681 21.1968 1.09482 21.0978C1.03283 20.9989 1.00006 20.8857 1 20.7703V3.55101ZM3.66667 2.27551C3.31304 2.27551 2.97391 2.40989 2.72386 2.64909C2.47381 2.8883 2.33333 3.21273 2.33333 3.55101V19.579L8.63067 16.4132C8.74008 16.3436 8.86857 16.3064 9 16.3064C9.13143 16.3064 9.25992 16.3436 9.36933 16.4132L15.6667 19.579V3.55101C15.6667 3.21273 15.5262 2.8883 15.2761 2.64909C15.0261 2.40989 14.687 2.27551 14.3333 2.27551H3.66667Z" fill="#1890FF" stroke="#1890FF"/>
<rect x="2.77734" y="1.88892" width="2.66667" height="17.7778" fill="#1890FF"/>
<rect x="12.5547" y="2.77783" width="3.55556" height="16.8889" fill="#1890FF"/>
<rect x="4.55469" y="1.88892" width="11.5556" height="16" fill="#1890FF"/>
</svg>
