<svg width="19" height="15" viewBox="0 0 19 15" fill="none" xmlns="http://www.w3.org/2000/svg">
<path d="M17.8125 12.1875C17.8125 12.5107 17.6874 12.8207 17.4647 13.0493C17.242 13.2778 16.9399 13.4062 16.625 13.4062H2.375C2.06006 13.4062 1.75801 13.2778 1.53531 13.0493C1.31261 12.8207 1.1875 12.5107 1.1875 12.1875V4.875C1.1875 4.55177 1.31261 4.24177 1.53531 4.01321C1.75801 3.78465 2.06006 3.65625 2.375 3.65625H3.76675C4.71109 3.65572 5.6166 3.2704 6.28425 2.58497L7.26988 1.57584C7.49194 1.34786 7.79297 1.21946 8.10706 1.21875H10.8906C11.2055 1.21882 11.5075 1.34727 11.7301 1.57584L12.7134 2.58497C13.0442 2.92465 13.4371 3.1941 13.8695 3.37791C14.3018 3.56173 14.7653 3.65631 15.2333 3.65625H16.625C16.9399 3.65625 17.242 3.78465 17.4647 4.01321C17.6874 4.24177 17.8125 4.55177 17.8125 4.875V12.1875ZM2.375 2.4375C1.74511 2.4375 1.14102 2.69431 0.695621 3.15143C0.250223 3.60855 0 4.22853 0 4.875L0 12.1875C0 12.834 0.250223 13.454 0.695621 13.9111C1.14102 14.3682 1.74511 14.625 2.375 14.625H16.625C17.2549 14.625 17.859 14.3682 18.3044 13.9111C18.7498 13.454 19 12.834 19 12.1875V4.875C19 4.22853 18.7498 3.60855 18.3044 3.15143C17.859 2.69431 17.2549 2.4375 16.625 2.4375H15.2333C14.6034 2.43736 13.9994 2.18046 13.5541 1.72331L12.5709 0.714187C12.1256 0.257036 11.5216 0.000138054 10.8917 0H8.10825C7.47841 0.000138054 6.87442 0.257036 6.42913 0.714187L5.44587 1.72331C5.00058 2.18046 4.39659 2.43736 3.76675 2.4375H2.375Z" fill="white"/>
<path d="M9.5 10.9688C8.71264 10.9688 7.95753 10.6477 7.40078 10.0763C6.84403 9.50494 6.53125 8.72996 6.53125 7.92188C6.53125 7.11379 6.84403 6.33881 7.40078 5.76741C7.95753 5.19601 8.71264 4.875 9.5 4.875C10.2874 4.875 11.0425 5.19601 11.5992 5.76741C12.156 6.33881 12.4688 7.11379 12.4688 7.92188C12.4688 8.72996 12.156 9.50494 11.5992 10.0763C11.0425 10.6477 10.2874 10.9688 9.5 10.9688ZM9.5 12.1875C10.6023 12.1875 11.6595 11.7381 12.4389 10.9381C13.2184 10.1382 13.6562 9.05319 13.6562 7.92188C13.6562 6.79056 13.2184 5.70558 12.4389 4.90562C11.6595 4.10566 10.6023 3.65625 9.5 3.65625C8.39769 3.65625 7.34054 4.10566 6.56109 4.90562C5.78164 5.70558 5.34375 6.79056 5.34375 7.92188C5.34375 9.05319 5.78164 10.1382 6.56109 10.9381C7.34054 11.7381 8.39769 12.1875 9.5 12.1875ZM3.5625 5.48438C3.5625 5.64599 3.49994 5.80099 3.38859 5.91527C3.27724 6.02955 3.12622 6.09375 2.96875 6.09375C2.81128 6.09375 2.66026 6.02955 2.54891 5.91527C2.43756 5.80099 2.375 5.64599 2.375 5.48438C2.375 5.32276 2.43756 5.16776 2.54891 5.05348C2.66026 4.9392 2.81128 4.875 2.96875 4.875C3.12622 4.875 3.27724 4.9392 3.38859 5.05348C3.49994 5.16776 3.5625 5.32276 3.5625 5.48438Z" fill="white"/>
</svg>
