<svg width="30" height="30" viewBox="0 0 30 30" fill="none" xmlns="http://www.w3.org/2000/svg">
<g opacity="0.7" filter="url(#filter0_b_215_7006)">
<circle cx="15" cy="15" r="15" fill="#BFBFBF"/>
</g>
<path d="M22.5902 11.9609C22.3427 11.3878 21.9858 10.8685 21.5395 10.432C21.0929 9.99414 20.5663 9.64621 19.9884 9.4071C19.3891 9.15816 18.7464 9.03075 18.0974 9.03224C17.1871 9.03224 16.2989 9.28153 15.527 9.75241C15.3423 9.86505 15.1669 9.98877 15.0007 10.1236C14.8345 9.98877 14.6591 9.86505 14.4744 9.75241C13.7026 9.28153 12.8143 9.03224 11.904 9.03224C11.2484 9.03224 10.6132 9.15781 10.0131 9.4071C9.43324 9.64715 8.91065 9.99247 8.46193 10.432C8.01505 10.868 7.65807 11.3874 7.41122 11.9609C7.15455 12.5574 7.02344 13.1908 7.02344 13.8426C7.02344 14.4575 7.14901 15.0983 7.3983 15.7501C7.60696 16.2949 7.90611 16.8599 8.28835 17.4305C8.89403 18.3335 9.72685 19.2753 10.7609 20.23C12.4746 21.8125 14.1716 22.9057 14.2436 22.95L14.6813 23.2307C14.8751 23.3544 15.1244 23.3544 15.3183 23.2307L15.756 22.95C15.828 22.9038 17.5232 21.8125 19.2386 20.23C20.2727 19.2753 21.1055 18.3335 21.7112 17.4305C22.0935 16.8599 22.3945 16.2949 22.6013 15.7501C22.8506 15.0983 22.9761 14.4575 22.9761 13.8426C22.978 13.1908 22.8469 12.5574 22.5902 11.9609ZM15.0007 21.77C15.0007 21.77 8.42685 17.558 8.42685 13.8426C8.42685 11.9609 9.98352 10.4356 11.904 10.4356C13.2538 10.4356 14.4246 11.1891 15.0007 12.2896C15.5768 11.1891 16.7476 10.4356 18.0974 10.4356C20.0179 10.4356 21.5746 11.9609 21.5746 13.8426C21.5746 17.558 15.0007 21.77 15.0007 21.77Z" fill="white"/>
<defs>
<filter id="filter0_b_215_7006" x="-1.36364" y="-1.36364" width="32.7273" height="32.7273" filterUnits="userSpaceOnUse" color-interpolation-filters="sRGB">
<feFlood flood-opacity="0" result="BackgroundImageFix"/>
<feGaussianBlur in="BackgroundImage" stdDeviation="0.681818"/>
<feComposite in2="SourceAlpha" operator="in" result="effect1_backgroundBlur_215_7006"/>
<feBlend mode="normal" in="SourceGraphic" in2="effect1_backgroundBlur_215_7006" result="shape"/>
</filter>
</defs>
</svg>
