<svg width="20" height="24" viewBox="0 0 20 24" fill="none" xmlns="http://www.w3.org/2000/svg">
<path d="M19.2097 5.98989C18.7036 4.81909 17.9739 3.75904 17.0618 2.86954C16.1468 1.972 15.068 1.25962 13.8844 0.771322C12.6532 0.258905 11.3468 0 10 0C8.65323 0 7.34677 0.258905 6.11559 0.768626C4.92473 1.26216 3.85753 1.96876 2.93817 2.86684C2.02667 3.75684 1.29708 4.81677 0.790322 5.98719C0.266129 7.20081 0 8.48994 0 9.81683C0 11.7209 0.454301 13.6168 1.34677 15.4453C2.06452 16.9152 3.0672 18.3472 4.33065 19.7092C6.48925 22.0339 8.75269 23.4552 9.39516 23.8355C9.57753 23.9435 9.78552 24.0004 9.99731 24C10.207 24 10.414 23.9461 10.5995 23.8355C11.2419 23.4552 13.5054 22.0339 15.664 19.7092C16.9274 18.3499 17.9301 16.9152 18.6479 15.4453C19.5457 13.6195 20 11.7263 20 9.81953C20 8.49264 19.7339 7.20351 19.2097 5.98989ZM10 21.9314C8.22849 20.8014 1.93548 16.3272 1.93548 9.81953C1.93548 7.71862 2.77151 5.74446 4.29032 4.25576C5.81452 2.76436 7.8414 1.94179 10 1.94179C12.1586 1.94179 14.1855 2.76435 15.7097 4.25846C17.2285 5.74446 18.0645 7.71862 18.0645 9.81953C18.0645 16.3272 11.7715 20.8014 10 21.9314ZM10 5.28599C7.3871 5.28599 5.26882 7.41117 5.26882 10.0326C5.26882 12.654 7.3871 14.7792 10 14.7792C12.6129 14.7792 14.7312 12.654 14.7312 10.0326C14.7312 7.41117 12.6129 5.28599 10 5.28599ZM12.129 12.1686C11.8498 12.4495 11.5179 12.6723 11.1526 12.8241C10.7872 12.9759 10.3955 13.0538 10 13.0532C9.19624 13.0532 8.44086 12.7376 7.87097 12.1686C7.59092 11.8884 7.36885 11.5555 7.21753 11.1889C7.06622 10.8223 6.98863 10.4294 6.98925 10.0326C6.98925 9.2262 7.30376 8.46837 7.87097 7.89662C8.44086 7.32487 9.19624 7.01202 10 7.01202C10.8038 7.01202 11.5591 7.32487 12.129 7.89662C12.6989 8.46837 13.0108 9.2262 13.0108 10.0326C13.0108 10.839 12.6989 11.5968 12.129 12.1686Z" fill="#7D7D7D"/>
</svg>
