<svg width="13" height="14" viewBox="0 0 13 14" fill="none" xmlns="http://www.w3.org/2000/svg">
<path d="M12.4625 12.3516L8.40469 8.29375C9.03438 7.47969 9.375 6.48438 9.375 5.4375C9.375 4.18438 8.88594 3.00937 8.00156 2.12344C7.11719 1.2375 5.93906 0.75 4.6875 0.75C3.43594 0.75 2.25781 1.23906 1.37344 2.12344C0.4875 3.00781 0 4.18438 0 5.4375C0 6.68906 0.489062 7.86719 1.37344 8.75156C2.25781 9.6375 3.43438 10.125 4.6875 10.125C5.73438 10.125 6.72813 9.78438 7.54219 9.15625L11.6 13.2125C11.6119 13.2244 11.626 13.2338 11.6416 13.2403C11.6571 13.2467 11.6738 13.2501 11.6906 13.2501C11.7075 13.2501 11.7241 13.2467 11.7397 13.2403C11.7552 13.2338 11.7694 13.2244 11.7812 13.2125L12.4625 12.5328C12.4744 12.5209 12.4838 12.5068 12.4903 12.4912C12.4967 12.4757 12.5001 12.459 12.5001 12.4422C12.5001 12.4254 12.4967 12.4087 12.4903 12.3931C12.4838 12.3776 12.4744 12.3635 12.4625 12.3516V12.3516ZM7.1625 7.9125C6.5 8.57344 5.62187 8.9375 4.6875 8.9375C3.75313 8.9375 2.875 8.57344 2.2125 7.9125C1.55156 7.25 1.1875 6.37187 1.1875 5.4375C1.1875 4.50313 1.55156 3.62344 2.2125 2.9625C2.875 2.30156 3.75313 1.9375 4.6875 1.9375C5.62187 1.9375 6.50156 2.3 7.1625 2.9625C7.82344 3.625 8.1875 4.50313 8.1875 5.4375C8.1875 6.37187 7.82344 7.25156 7.1625 7.9125Z" fill="#7D7D7D"/>
</svg>
