<svg width="20" height="20" viewBox="0 0 20 20" fill="none" xmlns="http://www.w3.org/2000/svg">
<path d="M10.3882 0H8.72157C8.57342 0 8.49935 0.0740741 8.49935 0.222222V8.94444H0.222222C0.0740741 8.94444 0 9.01852 0 9.16667V10.8333C0 10.9815 0.0740741 11.0556 0.222222 11.0556H8.49935V19.7778C8.49935 19.9259 8.57342 20 8.72157 20H10.3882C10.5364 20 10.6105 19.9259 10.6105 19.7778V11.0556H18.8889C19.037 11.0556 19.1111 10.9815 19.1111 10.8333V9.16667C19.1111 9.01852 19.037 8.94444 18.8889 8.94444H10.6105V0.222222C10.6105 0.0740741 10.5364 0 10.3882 0Z" fill="#515151"/>
</svg>
